<svg xmlns="http://www.w3.org/2000/svg" xmlns:xlink="http://www.w3.org/1999/xlink" width="120" height="26.987" viewBox="0 0 120 26.987">
  <defs>
    <clipPath id="clip-path">
      <path id="Path_6" data-name="Path 6" d="M0,0H120V-26.987H0Z" fill="none"/>
    </clipPath>
  </defs>
  <g id="Group_10" data-name="Group 10" transform="translate(0 26.987)">
    <g id="Group_6" data-name="Group 6" clip-path="url(#clip-path)">
      <g id="Group_1" data-name="Group 1" transform="translate(36.504 -15.891)">
        <path id="Path_1" data-name="Path 1" d="M0,0V-2.344A2.041,2.041,0,0,0-2.041-4.385,2.041,2.041,0,0,0-4.083-2.344V.631c-1.177.271-2.536.542-3.9.813V-9.111A2.03,2.03,0,0,0-10.054-11.1h-.01a2.009,2.009,0,0,0-1.995,1.984V2.438a.69.69,0,0,0-.363.09c-1.267.271-2.445.542-3.629.812V-5.591a1.994,1.994,0,0,0-2.033-1.956,2,2,0,0,0-1.957,1.956V4.238c-1.45.272-2.721.542-3.987.722V.36a2,2,0,0,0-2-2,2,2,0,0,0-2,2V5.5c-4.532.542-7.16.362-7.433-.453-.634-1.355,3.536-3.252,4.714-3.879V1.08h-.091c-1.178.45-6.255,2.524-5.62,4.328.634,1.986,8.43,2.527,24.659-1.442C1.809.628,8.064,0,8.7,1.26c.454,1.081-2.9,3.157-6.164,4.6a.33.33,0,0,0-.091.27c.091.09.18.18.273.09C3.894,5.767,10.06,3.154,9.786.988,9.516-.454,6.251-.906,0,0m-27.99,9.5v1.512a1.974,1.974,0,0,0,2.012,1.935,1.974,1.974,0,0,0,1.935-1.935V9.049a35.568,35.568,0,0,1-3.947.446m7.969-1.116v5.5a1.973,1.973,0,0,0,1.935,2.012,1.974,1.974,0,0,0,2.012-1.935c0-.026,0-.052,0-.077V7.568a34.016,34.016,0,0,1-3.947.811"/>
      </g>
      <g id="Group_2" data-name="Group 2" transform="translate(24.719 -9.202)">
        <path id="Path_2" data-name="Path 2" d="M0,0H-.272V3.864a2.049,2.049,0,0,0,4.095,0V-.9C2.639-.628,1.366-.36,0,0m7.7-1.8V.537A2.028,2.028,0,0,0,9.779,2.508H9.79a2,2,0,0,0,2-1.971V-2.6q-1.774.4-4.1.806"/>
      </g>
      <g id="Group_3" data-name="Group 3" transform="translate(64.302 -15.478)">
        <path id="Path_3" data-name="Path 3" d="M0,0A1.792,1.792,0,0,0-.659-.5a2.194,2.194,0,0,0-.905-.175,2.275,2.275,0,0,0-.951.2,2.291,2.291,0,0,0-.759.555,2.584,2.584,0,0,0-.5.846,3.037,3.037,0,0,0-.181,1.062,3.023,3.023,0,0,0,.181,1.068,2.673,2.673,0,0,0,.5.841,2.246,2.246,0,0,0,.741.554,2.15,2.15,0,0,0,.917.2A2.05,2.05,0,0,0-.63,4.412a1.981,1.981,0,0,0,.712-.654L1.6,4.891A3.157,3.157,0,0,1,.268,5.976a4.119,4.119,0,0,1-1.657.35,5.1,5.1,0,0,1-1.786-.3,4.1,4.1,0,0,1-1.412-.87,3.946,3.946,0,0,1-.928-1.371,4.664,4.664,0,0,1-.333-1.8,4.662,4.662,0,0,1,.333-1.8,3.951,3.951,0,0,1,.928-1.372,4.094,4.094,0,0,1,1.412-.869,5.1,5.1,0,0,1,1.786-.3,4.357,4.357,0,0,1,.73.065,3.872,3.872,0,0,1,.747.2,3.348,3.348,0,0,1,.706.373,2.851,2.851,0,0,1,.607.572Z"/>
      </g>
      <g id="Group_4" data-name="Group 4" transform="translate(67.909 -13.494)">
        <path id="Path_4" data-name="Path 4" d="M0,0A4.662,4.662,0,0,1,.333-1.8a3.937,3.937,0,0,1,.928-1.372,4.076,4.076,0,0,1,1.412-.869,5.073,5.073,0,0,1,1.786-.3,5.072,5.072,0,0,1,1.785.3,4.089,4.089,0,0,1,1.413.869A3.951,3.951,0,0,1,8.585-1.8,4.681,4.681,0,0,1,8.917,0a4.677,4.677,0,0,1-.332,1.8,3.941,3.941,0,0,1-.928,1.372,4.092,4.092,0,0,1-1.413.87,5.094,5.094,0,0,1-1.785.3,5.1,5.1,0,0,1-1.786-.3,4.078,4.078,0,0,1-1.412-.87A3.928,3.928,0,0,1,.333,1.8,4.659,4.659,0,0,1,0,0M1.891,0a3.023,3.023,0,0,0,.181,1.068,2.426,2.426,0,0,0,.519.84,2.363,2.363,0,0,0,.811.555,2.709,2.709,0,0,0,1.057.2,2.708,2.708,0,0,0,1.056-.2,2.363,2.363,0,0,0,.811-.555,2.443,2.443,0,0,0,.52-.84A3.045,3.045,0,0,0,7.026,0a3.059,3.059,0,0,0-.18-1.062,2.432,2.432,0,0,0-.52-.846,2.377,2.377,0,0,0-.811-.555,2.708,2.708,0,0,0-1.056-.2,2.709,2.709,0,0,0-1.057.2,2.377,2.377,0,0,0-.811.555,2.415,2.415,0,0,0-.519.846A3.037,3.037,0,0,0,1.891,0"/>
      </g>
      <g id="Group_5" data-name="Group 5" transform="translate(87.004 -9.946)">
        <path id="Path_5" data-name="Path 5" d="M0,0A6.575,6.575,0,0,1-1.681.607,8.566,8.566,0,0,1-3.467.794,5.094,5.094,0,0,1-5.252.49,4.089,4.089,0,0,1-6.665-.379a3.951,3.951,0,0,1-.928-1.372,4.681,4.681,0,0,1-.332-1.8,4.686,4.686,0,0,1,.332-1.8,3.937,3.937,0,0,1,.928-1.371,4.107,4.107,0,0,1,1.413-.87,5.094,5.094,0,0,1,1.785-.3,6.627,6.627,0,0,1,1.827.239,3.585,3.585,0,0,1,1.465.823l-1.284,1.4a2.553,2.553,0,0,0-.84-.584,3.007,3.007,0,0,0-1.168-.2,2.708,2.708,0,0,0-1.056.2,2.374,2.374,0,0,0-.811.554,2.428,2.428,0,0,0-.519.847,3.033,3.033,0,0,0-.181,1.062A3.023,3.023,0,0,0-5.853-2.48a2.426,2.426,0,0,0,.519.84,2.36,2.36,0,0,0,.811.554,2.69,2.69,0,0,0,1.056.2,3.5,3.5,0,0,0,1.028-.134A3.876,3.876,0,0,0-1.751-1.3V-2.638H-3.233V-4.319H0Z"/>
      </g>
    </g>
    <g id="Group_7" data-name="Group 7" transform="translate(90.062 -17.626)">
      <path id="Path_7" data-name="Path 7" d="M0,0H2.474L5.988,5.743h.023V0H7.832V8.264H5.451L1.844,2.381H1.821V8.264H0Z"/>
    </g>
    <path id="Path_8" data-name="Path 8" d="M101.01-17.626h1.821v8.264H101.01Z"/>
    <g id="Group_8" data-name="Group 8" transform="translate(107.546 -16.015)">
      <path id="Path_9" data-name="Path 9" d="M0,0H-2.358V-1.611H4.179V0H1.821V6.653H0Z"/>
    </g>
    <g id="Group_9" data-name="Group 9" transform="translate(114.176 -17.626)">
      <path id="Path_10" data-name="Path 10" d="M0,0V8.264H5.824V6.583h-4V4.9H5.4V3.221H1.821V1.681H5.614V0Z"/>
    </g>
  </g>
</svg>
